<?xml version="1.0" encoding="UTF-8"?>
<svg width="512" height="512" viewBox="0 0 512 512" fill="none" xmlns="http://www.w3.org/2000/svg">
  <rect width="512" height="512" rx="128" fill="#4A90E2"/>
  <path d="M256 128C179.307 128 116 191.307 116 258C116 324.693 179.307 388 256 388C332.693 388 396 324.693 396 258C396 191.307 332.693 128 256 128ZM256 352C197.019 352 148 302.981 148 244C148 185.019 197.019 136 256 136C314.981 136 364 185.019 364 244C364 302.981 314.981 352 256 352Z" fill="white"/>
  <circle cx="256" cy="244" r="48" fill="white"/>
</svg> 